<?xml version="1.0" encoding="us-ascii" standalone="no"?><svg xmlns="http://www.w3.org/2000/svg" xmlns:xlink="http://www.w3.org/1999/xlink" contentStyleType="text/css" height="62px" preserveAspectRatio="none" style="width:737px;height:62px;background:#FFFFFF;" version="1.1" viewBox="0 0 737 62" width="737px" zoomAndPan="magnify"><defs/><g><!--class Word--><g id="elem_Word"><rect codeLine="1" fill="#F1F1F1" height="48" id="Word" rx="2.5" ry="2.5" style="stroke:#181818;stroke-width:0.5;" width="68" x="7" y="7"/><ellipse cx="22" cy="23" fill="#ADD1B2" rx="11" ry="11" style="stroke:#181818;stroke-width:1.0;"/><path d="M24.4731,29.1431 Q23.8921,29.4419 23.2529,29.5913 Q22.6138,29.7407 21.9082,29.7407 Q19.4014,29.7407 18.0815,28.0889 Q16.7617,26.437 16.7617,23.3159 Q16.7617,20.1865 18.0815,18.5347 Q19.4014,16.8828 21.9082,16.8828 Q22.6138,16.8828 23.2612,17.0322 Q23.9087,17.1816 24.4731,17.4805 L24.4731,20.2031 Q23.8423,19.6221 23.2488,19.3523 Q22.6553,19.0825 22.0244,19.0825 Q20.6797,19.0825 19.9949,20.1492 Q19.3101,21.2158 19.3101,23.3159 Q19.3101,25.4077 19.9949,26.4744 Q20.6797,27.541 22.0244,27.541 Q22.6553,27.541 23.2488,27.2712 Q23.8423,27.0015 24.4731,26.4204 Z " fill="#000000"/><text fill="#000000" font-family="sans-serif" font-size="14" lengthAdjust="spacing" textLength="36" x="36" y="28.291">Word</text><line style="stroke:#181818;stroke-width:0.5;" x1="8" x2="74" y1="39" y2="39"/><line style="stroke:#181818;stroke-width:0.5;" x1="8" x2="74" y1="47" y2="47"/></g><!--class FastText--><g id="elem_FastText"><rect codeLine="2" fill="#F1F1F1" height="48" id="FastText" rx="2.5" ry="2.5" style="stroke:#181818;stroke-width:0.5;" width="91" x="136.5" y="7"/><ellipse cx="151.5" cy="23" fill="#ADD1B2" rx="11" ry="11" style="stroke:#181818;stroke-width:1.0;"/><path d="M153.9731,29.1431 Q153.3921,29.4419 152.7529,29.5913 Q152.1138,29.7407 151.4082,29.7407 Q148.9014,29.7407 147.5815,28.0889 Q146.2617,26.437 146.2617,23.3159 Q146.2617,20.1865 147.5815,18.5347 Q148.9014,16.8828 151.4082,16.8828 Q152.1138,16.8828 152.7612,17.0322 Q153.4087,17.1816 153.9731,17.4805 L153.9731,20.2031 Q153.3423,19.6221 152.7488,19.3523 Q152.1553,19.0825 151.5244,19.0825 Q150.1797,19.0825 149.4949,20.1492 Q148.8101,21.2158 148.8101,23.3159 Q148.8101,25.4077 149.4949,26.4744 Q150.1797,27.541 151.5244,27.541 Q152.1553,27.541 152.7488,27.2712 Q153.3423,27.0015 153.9731,26.4204 Z " fill="#000000"/><text fill="#000000" font-family="sans-serif" font-size="14" lengthAdjust="spacing" textLength="59" x="165.5" y="28.291">FastText</text><line style="stroke:#181818;stroke-width:0.5;" x1="137.5" x2="226.5" y1="39" y2="39"/><line style="stroke:#181818;stroke-width:0.5;" x1="137.5" x2="226.5" y1="47" y2="47"/></g><!--class Embeddings--><g id="elem_Embeddings"><rect codeLine="3" fill="#F1F1F1" height="48" id="Embeddings" rx="2.5" ry="2.5" style="stroke:#181818;stroke-width:0.5;" width="117" x="303.5" y="7"/><ellipse cx="318.5" cy="23" fill="#ADD1B2" rx="11" ry="11" style="stroke:#181818;stroke-width:1.0;"/><path d="M320.9731,29.1431 Q320.3921,29.4419 319.7529,29.5913 Q319.1138,29.7407 318.4082,29.7407 Q315.9014,29.7407 314.5815,28.0889 Q313.2617,26.437 313.2617,23.3159 Q313.2617,20.1865 314.5815,18.5347 Q315.9014,16.8828 318.4082,16.8828 Q319.1138,16.8828 319.7612,17.0322 Q320.4087,17.1816 320.9731,17.4805 L320.9731,20.2031 Q320.3423,19.6221 319.7488,19.3523 Q319.1553,19.0825 318.5244,19.0825 Q317.1797,19.0825 316.4949,20.1492 Q315.8101,21.2158 315.8101,23.3159 Q315.8101,25.4077 316.4949,26.4744 Q317.1797,27.541 318.5244,27.541 Q319.1553,27.541 319.7488,27.2712 Q320.3423,27.0015 320.9731,26.4204 Z " fill="#000000"/><text fill="#000000" font-family="sans-serif" font-size="14" lengthAdjust="spacing" textLength="85" x="332.5" y="28.291">Embeddings</text><line style="stroke:#181818;stroke-width:0.5;" x1="304.5" x2="419.5" y1="39" y2="39"/><line style="stroke:#181818;stroke-width:0.5;" x1="304.5" x2="419.5" y1="47" y2="47"/></g><!--class MLP--><g id="elem_MLP"><rect codeLine="4" fill="#F1F1F1" height="48" id="MLP" rx="2.5" ry="2.5" style="stroke:#181818;stroke-width:0.5;" width="59" x="495.5" y="7"/><ellipse cx="510.5" cy="23" fill="#ADD1B2" rx="11" ry="11" style="stroke:#181818;stroke-width:1.0;"/><path d="M512.9731,29.1431 Q512.3921,29.4419 511.7529,29.5913 Q511.1138,29.7407 510.4082,29.7407 Q507.9014,29.7407 506.5815,28.0889 Q505.2617,26.437 505.2617,23.3159 Q505.2617,20.1865 506.5815,18.5347 Q507.9014,16.8828 510.4082,16.8828 Q511.1138,16.8828 511.7612,17.0322 Q512.4087,17.1816 512.9731,17.4805 L512.9731,20.2031 Q512.3423,19.6221 511.7488,19.3523 Q511.1553,19.0825 510.5244,19.0825 Q509.1797,19.0825 508.4949,20.1492 Q507.8101,21.2158 507.8101,23.3159 Q507.8101,25.4077 508.4949,26.4744 Q509.1797,27.541 510.5244,27.541 Q511.1553,27.541 511.7488,27.2712 Q512.3423,27.0015 512.9731,26.4204 Z " fill="#000000"/><text fill="#000000" font-family="sans-serif" font-size="14" lengthAdjust="spacing" textLength="27" x="524.5" y="28.291">MLP</text><line style="stroke:#181818;stroke-width:0.5;" x1="496.5" x2="553.5" y1="39" y2="39"/><line style="stroke:#181818;stroke-width:0.5;" x1="496.5" x2="553.5" y1="47" y2="47"/></g><!--class VA_values--><g id="elem_VA_values"><rect codeLine="5" fill="#F1F1F1" height="48" id="VA_values" rx="2.5" ry="2.5" style="stroke:#181818;stroke-width:0.5;" width="101" x="629.5" y="7"/><ellipse cx="644.5" cy="23" fill="#ADD1B2" rx="11" ry="11" style="stroke:#181818;stroke-width:1.0;"/><path d="M646.9731,29.1431 Q646.3921,29.4419 645.7529,29.5913 Q645.1138,29.7407 644.4082,29.7407 Q641.9014,29.7407 640.5815,28.0889 Q639.2617,26.437 639.2617,23.3159 Q639.2617,20.1865 640.5815,18.5347 Q641.9014,16.8828 644.4082,16.8828 Q645.1138,16.8828 645.7612,17.0322 Q646.4087,17.1816 646.9731,17.4805 L646.9731,20.2031 Q646.3423,19.6221 645.7488,19.3523 Q645.1553,19.0825 644.5244,19.0825 Q643.1797,19.0825 642.4949,20.1492 Q641.8101,21.2158 641.8101,23.3159 Q641.8101,25.4077 642.4949,26.4744 Q643.1797,27.541 644.5244,27.541 Q645.1553,27.541 645.7488,27.2712 Q646.3423,27.0015 646.9731,26.4204 Z " fill="#000000"/><text fill="#000000" font-family="sans-serif" font-size="14" lengthAdjust="spacing" textLength="69" x="658.5" y="28.291">VA_values</text><line style="stroke:#181818;stroke-width:0.5;" x1="630.5" x2="729.5" y1="39" y2="39"/><line style="stroke:#181818;stroke-width:0.5;" x1="630.5" x2="729.5" y1="47" y2="47"/></g><!--link Word to FastText--><g id="link_Word_FastText"><path codeLine="6" d="M75.49,31 C93.75,31 110.42,31 130.15,31 " fill="none" id="Word-to-FastText" style="stroke:#181818;stroke-width:1.0;"/><polygon fill="#181818" points="136.15,31,127.15,27,131.15,31,127.15,35,136.15,31" style="stroke:#181818;stroke-width:1.0;"/><text fill="#000000" font-family="sans-serif" font-size="13" lengthAdjust="spacing" textLength="25" x="93.25" y="24.5684">text</text></g><!--link FastText to Embeddings--><g id="link_FastText_Embeddings"><path codeLine="7" d="M227.89,31 C250.8,31 272.79,31 297.25,31 " fill="none" id="FastText-to-Embeddings" style="stroke:#181818;stroke-width:1.0;"/><polygon fill="#181818" points="303.25,31,294.25,27,298.25,31,294.25,35,303.25,31" style="stroke:#181818;stroke-width:1.0;"/><text fill="#000000" font-family="sans-serif" font-size="13" lengthAdjust="spacing" textLength="39" x="246" y="24.5684">vector</text></g><!--link Embeddings to MLP--><g id="link_Embeddings_MLP"><path codeLine="8" d="M420.85,31 C446.02,31 468.31,31 489.06,31 " fill="none" id="Embeddings-to-MLP" style="stroke:#181818;stroke-width:1.0;"/><polygon fill="#181818" points="495.06,31,486.06,27,490.06,31,486.06,35,495.06,31" style="stroke:#181818;stroke-width:1.0;"/><text fill="#000000" font-family="sans-serif" font-size="13" lengthAdjust="spacing" textLength="39" x="438.5" y="24.5684">vector</text></g><!--link MLP to VA_values--><g id="link_MLP_VA_values"><path codeLine="9" d="M554.89,31 C575.91,31 598.57,31 623.15,31 " fill="none" id="MLP-to-VA_values" style="stroke:#181818;stroke-width:1.0;"/><polygon fill="#181818" points="629.15,31,620.15,27,624.15,31,620.15,35,629.15,31" style="stroke:#181818;stroke-width:1.0;"/><text fill="#000000" font-family="sans-serif" font-size="13" lengthAdjust="spacing" textLength="39" x="572.5" y="24.5684">vector</text></g><!--SRC=[Iyv9B2vM2CylIk5A1ZFT4ejBGb8hIg1Srzoar9IKpBpqOgY0hqy0b1Nc65-Mc5EQMim5qgwWQmVNgs2bK08o0iu7oY4C0igMfIQNv1Tn8Oa1LG1DHaY1E40nk1rm6G00]--></g></svg>